<?xml version="1.0" encoding="UTF-8" standalone="no"?>
<svg
   version="1.1"
   id="Layer_1"
   x="0px"
   y="0px"
   width="306px"
   height="344.35px"
   viewBox="0 0 306 344.35"
   enable-background="new 0 0 306 344.35"
   xml:space="preserve"
   sodipodi:docname="Cpp.svg"
   inkscape:version="1.2.2 (732a01da63, 2022-12-09)"
   xmlns:inkscape="http://www.inkscape.org/namespaces/inkscape"
   xmlns:sodipodi="http://sodipodi.sourceforge.net/DTD/sodipodi-0.dtd"
   xmlns="http://www.w3.org/2000/svg"
   xmlns:svg="http://www.w3.org/2000/svg"><defs
   id="defs46" /><sodipodi:namedview
   id="namedview44"
   pagecolor="#ffffff"
   bordercolor="#666666"
   borderopacity="1.0"
   inkscape:showpageshadow="2"
   inkscape:pageopacity="0.0"
   inkscape:pagecheckerboard="0"
   inkscape:deskcolor="#d1d1d1"
   showgrid="false"
   inkscape:zoom="0.78239463"
   inkscape:cx="53.042287"
   inkscape:cy="180.85503"
   inkscape:window-width="1366"
   inkscape:window-height="715"
   inkscape:window-x="-8"
   inkscape:window-y="-8"
   inkscape:window-maximized="1"
   inkscape:current-layer="Layer_1"><inkscape:grid
     type="xygrid"
     id="grid258" /></sodipodi:namedview>
<path
   fill="#00599C"
   d="M302.107,258.262c2.401-4.159,3.893-8.845,3.893-13.053V99.14c0-4.208-1.49-8.893-3.892-13.052L153,172.175  L302.107,258.262z"
   id="path25"
   style="fill:#810ca8;fill-opacity:1" />
<path
   fill="#004482"
   d="M166.25,341.193l126.5-73.034c3.644-2.104,6.956-5.737,9.357-9.897L153,172.175L3.893,258.263  c2.401,4.159,5.714,7.793,9.357,9.896l126.5,73.034C147.037,345.401,158.963,345.401,166.25,341.193z"
   id="path27"
   style="fill:#3f0071;fill-opacity:1" />
<path
   fill="#659AD2"
   d="M302.108,86.087c-2.402-4.16-5.715-7.793-9.358-9.897L166.25,3.156c-7.287-4.208-19.213-4.208-26.5,0  L13.25,76.19C5.962,80.397,0,90.725,0,99.14v146.069c0,4.208,1.491,8.894,3.893,13.053L153,172.175L302.108,86.087z"
   id="path29"
   style="fill:#c147e9;fill-opacity:1" />



<rect
   style="fill:#ffffff;stroke-width:5.82211;stroke-linecap:square;stroke-linejoin:round;stroke-opacity:0.410072;paint-order:stroke fill markers"
   id="rect361"
   width="129.24048"
   height="129.24048"
   x="131.17911"
   y="-46.036652"
   transform="matrix(0.86558464,0.50076265,-0.86558464,0.50076265,0,0)"
   ry="0" /><path
   id="path558"
   style="fill:#ffffff;stroke-width:2.79364;stroke-linecap:square;stroke-linejoin:round;stroke-opacity:0.410072;paint-order:stroke fill markers"
   d="m 153.39453,190.63672 -47.79756,38.20416 h 95.59512 z" /><path
   id="rect561"
   style="fill:#ffffff;stroke-width:3.22435;stroke-linecap:square;stroke-linejoin:round;stroke-opacity:0.410072;paint-order:stroke fill markers"
   d="M 141.05859 220.27539 L 141.05859 309.85742 L 141.41602 309.85742 L 153.39453 316.78711 L 165.375 309.85742 L 165.57617 309.85742 L 165.57617 309.74023 L 165.67188 309.68555 L 165.57617 309.63086 L 165.57617 220.27539 L 141.05859 220.27539 z " /></svg>
